<?xml version="1.0" standalone="no"?>
<!DOCTYPE svg PUBLIC "-//W3C//DTD SVG 20010904//EN"
 "http://www.w3.org/TR/2001/REC-SVG-20010904/DTD/svg10.dtd">
<svg version="1.0" xmlns="http://www.w3.org/2000/svg"
 width="275.000000pt" height="183.000000pt" viewBox="0 0 275.000000 183.000000"
 preserveAspectRatio="xMidYMid meet">

<g transform="translate(0.000000,183.000000) scale(0.100000,-0.100000)"
fill="#000000" stroke="none">
<path d="M1367 1679 c-58 -34 -78 -213 -34 -299 12 -25 34 -52 49 -60 25 -13
29 -13 55 6 75 55 84 270 16 339 -27 27 -56 31 -86 14z m52 -56 c12 -41 15
-214 5 -250 -9 -33 -23 -28 -40 12 -25 62 -13 275 16 275 5 0 14 -17 19 -37z"/>
<path d="M1143 1660 c-36 -22 -48 -61 -46 -150 3 -76 21 -135 51 -165 21 -22
33 -25 71 -23 l46 3 3 79 c3 88 -1 96 -55 96 -29 0 -33 -3 -33 -25 0 -20 5
-25 25 -25 23 0 25 -3 25 -50 0 -27 -4 -50 -8 -50 -15 0 -38 33 -51 69 -17 52
-14 182 5 209 21 30 31 21 39 -38 6 -47 9 -50 36 -50 28 0 29 2 29 45 0 83
-66 119 -137 75z"/>
<path d="M1932 1667 c-20 -24 -42 -98 -57 -192 -21 -126 -20 -155 5 -155 14 0
22 11 29 38 6 20 11 43 11 50 0 7 14 12 39 12 43 0 51 -10 51 -66 0 -30 3 -34
26 -34 l27 0 -7 63 c-21 198 -81 336 -124 284z m50 -139 l15 -68 -33 0 c-39 0
-40 5 -23 94 7 31 15 53 19 49 4 -4 14 -38 22 -75z"/>
<path d="M733 1654 c-5 -14 25 -85 37 -83 3 0 19 8 35 18 37 22 43 66 8 66
-12 0 -25 4 -29 8 -13 13 -44 7 -51 -9z"/>
<path d="M903 1663 c-10 -3 -13 -48 -13 -174 l0 -169 30 0 30 0 0 175 c0 160
-1 175 -17 174 -10 0 -24 -3 -30 -6z"/>
<path d="M1531 1662 c-45 -9 -53 -32 -12 -32 l31 0 0 -124 c0 -157 6 -188 34
-184 20 3 21 9 24 151 l3 147 29 0 c28 0 42 21 23 33 -16 10 -99 15 -132 9z"/>
<path d="M1738 1663 c-45 -5 -52 -30 -10 -35 l27 -3 5 -150 5 -150 25 0 25 0
3 148 3 147 29 0 c28 0 42 21 23 33 -14 9 -97 14 -135 10z"/>
<path d="M2185 1611 c-6 -5 -21 -11 -35 -13 -17 -2 -26 -10 -28 -25 -3 -17 6
-26 37 -42 30 -14 41 -16 41 -6 0 7 7 18 15 25 20 16 19 56 -1 64 -20 8 -18 8
-29 -3z"/>
<path d="M740 1485 c-7 -8 -20 -15 -30 -15 -10 0 -23 -7 -30 -15 -21 -26 -7
-48 42 -66 l47 -17 21 42 c24 51 24 51 4 70 -19 20 -38 20 -54 1z"/>
<path d="M2157 1423 c-12 -11 -8 -41 10 -78 18 -37 25 -38 83 -11 33 15 40 61
11 71 -12 3 -25 4 -30 1 -5 -3 -11 1 -15 9 -5 15 -47 21 -59 8z"/>
<path d="M159 1398 c-1 -2 -3 -15 -5 -30 -3 -30 2 -33 25 -19 12 8 13 12 1 25
-11 14 -10 16 3 10 9 -3 19 -15 23 -27 6 -20 7 -20 24 4 17 21 18 21 17 4 -1
-14 5 -20 21 -21 16 -1 22 4 21 20 0 11 -3 15 -6 9 -6 -16 -23 -17 -23 -3 0 6
10 15 23 20 20 9 20 10 -8 8 -16 -1 -38 -9 -47 -17 -16 -12 -18 -12 -18 2 0
11 -8 17 -25 17 -14 0 -26 -1 -26 -2z"/>
<path d="M1720 1265 c-5 -13 -12 -47 -16 -75 -4 -28 -9 -52 -13 -54 -3 -2 -25
-7 -48 -11 l-42 -7 -3 74 c-2 55 -6 73 -17 73 -11 0 -14 -15 -12 -72 2 -68 1
-73 -18 -73 -12 0 -30 5 -41 12 -22 14 -35 6 -27 -17 4 -10 20 -15 47 -15 45
0 45 0 26 -64 -19 -61 -40 -84 -70 -79 -26 5 -44 -13 -28 -29 33 -33 100 34
128 130 8 28 21 52 28 52 8 0 27 3 43 6 l30 6 6 -61 c8 -95 42 -118 91 -61 24
29 25 30 36 10 15 -29 65 -27 94 5 l23 25 11 -25 c19 -42 65 -26 86 30 8 20 8
20 16 -1 13 -33 25 -36 46 -13 l19 21 5 -28 c9 -48 26 -36 46 33 20 69 44 96
44 48 0 -25 3 -27 30 -23 23 4 30 1 30 -12 0 -9 5 -31 11 -49 8 -24 17 -31 32
-29 25 4 54 43 62 83 5 29 5 29 -11 -5 -24 -53 -34 -62 -50 -49 -16 13 -19
105 -4 143 7 19 18 26 47 29 l38 4 -40 1 c-41 2 -41 2 -37 37 6 48 -15 45 -28
-4 -8 -32 -14 -38 -30 -34 -12 3 -20 0 -20 -7 0 -6 9 -14 20 -17 24 -6 27 -45
4 -64 -13 -10 -17 -10 -25 2 -5 8 -9 22 -9 32 0 35 -35 13 -60 -38 l-25 -50
-3 43 c-2 23 -7 42 -13 42 -8 0 -13 -15 -10 -33 2 -14 -30 -69 -37 -63 -3 4
-9 28 -12 54 -3 26 -9 47 -15 47 -5 1 -21 5 -33 9 -29 10 -68 -23 -77 -64 -13
-59 -84 -104 -99 -64 -12 31 -6 43 29 59 53 26 60 75 11 75 -30 0 -48 -21 -85
-103 -23 -51 -35 -68 -48 -65 -19 4 -36 56 -31 102 3 31 8 33 42 20 14 -5 17
-3 14 7 -2 8 -15 16 -28 17 -20 3 -22 8 -17 45 4 23 9 57 13 75 8 39 -12 45
-26 7z m180 -124 c0 -14 -38 -57 -45 -50 -9 10 17 59 32 59 7 0 13 -4 13 -9z
m133 -20 c5 -20 -15 -87 -31 -103 -28 -28 -42 31 -21 91 12 35 44 43 52 12z"/>
<path d="M684 1261 c-107 -65 -140 -235 -53 -271 41 -17 86 -3 130 41 l39 39
0 -30 c0 -16 -4 -30 -9 -30 -20 0 -101 -83 -111 -116 -16 -47 7 -84 50 -84 54
0 85 48 100 155 11 69 36 99 54 63 28 -54 86 -44 116 19 19 41 27 41 27 4 0
-81 83 -82 121 -2 16 32 17 44 8 72 -15 47 -51 51 -95 10 -39 -37 -49 -38 -53
-10 -8 59 -70 44 -120 -28 -32 -47 -52 -49 -56 -5 -4 41 -26 42 -42 1 -16 -37
-83 -89 -116 -89 -13 0 -32 12 -44 28 -18 22 -21 35 -16 70 12 91 81 176 139
170 40 -4 55 -29 37 -62 -16 -30 -7 -45 18 -30 25 16 26 47 2 77 -26 33 -79
36 -126 8z m312 -136 c4 -14 4 -29 0 -32 -11 -11 -39 25 -33 41 9 24 26 19 33
-9z m143 3 c10 -28 5 -39 -14 -31 -17 6 -21 53 -5 53 6 0 14 -10 19 -22z
m-191 -28 c7 -11 21 -20 31 -20 24 0 18 -31 -11 -56 -36 -33 -69 11 -54 72 8
29 17 30 34 4z m177 -20 c8 0 15 -7 15 -15 0 -22 -38 -57 -58 -53 -24 5 -36
47 -23 82 l12 29 20 -21 c11 -12 26 -22 34 -22z m-334 -168 c-13 -46 -46 -92
-67 -92 -8 0 -19 11 -26 25 -15 34 4 77 56 121 l41 35 3 -25 c2 -13 -2 -42 -7
-64z"/>
<path d="M1301 1230 c-6 -28 -11 -57 -11 -63 0 -9 -11 -12 -34 -9 -28 3 -37
-1 -57 -29 -26 -37 -27 -79 -3 -116 19 -31 48 -29 73 5 19 25 20 25 21 6 0
-32 26 -50 46 -33 18 15 39 53 48 89 4 14 -5 4 -19 -22 -27 -50 -39 -58 -49
-32 -12 32 -1 163 20 237 3 11 0 17 -9 17 -10 0 -19 -17 -26 -50z m-27 -96
c14 -37 0 -98 -28 -116 -18 -12 -36 13 -36 51 0 59 48 108 64 65z"/>
<path d="M150 1080 c0 -33 3 -35 31 -20 14 8 19 7 19 -2 0 -9 3 -9 11 -1 6 6
17 9 23 7 6 -2 12 6 12 19 1 16 -4 23 -17 23 -12 0 -18 -5 -15 -13 3 -7 1 -15
-3 -18 -5 -2 -11 4 -14 15 -3 12 -14 20 -26 20 -17 0 -21 -6 -21 -30z m40 11
c0 -12 -20 -25 -27 -18 -7 7 6 27 18 27 5 0 9 -4 9 -9z"/>
<path d="M260 1080 c0 -29 1 -29 20 -13 13 11 16 19 9 24 -8 4 -7 8 2 12 8 3
4 6 -8 6 -19 1 -23 -4 -23 -29z"/>
<path d="M1097 893 c-9 -8 -9 -68 0 -155 6 -65 7 -68 32 -68 42 0 71 26 71 64
0 19 -7 39 -15 46 -14 12 -14 15 0 30 31 35 8 89 -34 75 -10 -3 -22 -1 -26 5
-7 12 -19 13 -28 3z m61 -50 c-4 -39 -28 -42 -28 -4 0 21 5 31 16 31 11 0 14
-8 12 -27z m7 -104 c5 -22 2 -36 -9 -47 -15 -15 -16 -12 -16 36 0 57 14 62 25
11z"/>
<path d="M1660 791 c0 -70 4 -102 13 -110 20 -16 27 -3 27 51 0 41 3 48 19 48
17 0 20 -8 23 -52 2 -29 8 -52 13 -50 15 3 13 204 -2 209 -8 3 -13 -11 -15
-39 -2 -30 -7 -43 -18 -43 -10 0 -16 13 -18 43 -3 34 -7 42 -23 42 -17 0 -19
-8 -19 -99z"/>
<path d="M1787 884 c-4 -4 -7 -54 -7 -111 0 -92 2 -104 17 -101 14 3 16 17 16
108 -1 95 -8 122 -26 104z"/>
<path d="M1856 869 c-41 -33 -36 -71 16 -106 42 -28 62 -63 37 -63 -7 0 -20 7
-30 16 -17 16 -39 12 -39 -6 0 -18 50 -42 74 -36 49 12 44 63 -10 96 -19 12
-34 30 -34 40 0 30 11 50 27 50 12 0 13 -8 8 -40 -5 -32 -4 -40 8 -40 9 0 21
15 27 35 22 67 -27 99 -84 54z"/>
<path d="M971 866 c-6 -7 -22 -11 -35 -9 -17 4 -27 -1 -35 -15 -16 -30 -6 -46
42 -69 l43 -21 22 34 c25 38 28 64 10 82 -16 16 -33 15 -47 -2z"/>
<path d="M1220 796 c0 -73 3 -89 20 -106 50 -50 90 -3 90 104 0 59 2 66 20 66
18 0 20 -8 22 -92 2 -75 6 -93 18 -93 12 0 16 18 18 93 2 73 6 92 17 92 8 0
15 5 15 10 0 6 -30 10 -75 9 l-74 -1 -3 -92 c-4 -116 -21 -116 -28 1 -4 73 -8
88 -22 91 -16 3 -18 -6 -18 -82z"/>
<path d="M1530 870 c0 -5 9 -10 20 -10 18 0 20 -8 22 -92 2 -75 6 -93 18 -93
12 0 15 17 15 90 0 77 3 90 18 93 38 8 13 22 -38 22 -30 0 -55 -4 -55 -10z"/>
<path d="M2006 864 c-21 -21 -20 -28 10 -73 l26 -39 41 21 c50 26 64 70 27 82
-12 4 -24 4 -27 1 -3 -3 -15 1 -27 9 -26 19 -31 19 -50 -1z"/>
<path d="M168 822 c-11 -2 -18 -13 -18 -28 0 -18 5 -24 23 -23 21 0 21 1 2 9
l-20 9 20 0 c15 1 17 3 6 10 -11 7 -11 9 0 13 19 7 8 15 -13 10z"/>
<path d="M213 823 c-7 -3 -13 -16 -13 -29 0 -24 1 -24 21 -10 12 8 28 12 36 9
12 -5 12 -7 1 -15 -10 -7 -8 -8 6 -6 25 4 33 28 9 29 -16 0 -16 1 2 9 11 5 18
9 15 10 -17 5 -67 6 -77 3z"/>
<path d="M2137 693 c-3 -10 -8 -40 -12 -68 l-6 -50 -58 -2 -59 -2 9 37 c15 64
12 92 -11 92 -19 0 -27 -18 -45 -108 -6 -29 -10 -33 -28 -27 -42 12 -52 10
-52 -10 0 -15 8 -21 33 -23 l32 -3 0 -78 c0 -60 -5 -86 -22 -121 -39 -76 -59
-61 -81 58 -10 55 -16 67 -31 67 -10 0 -22 -7 -26 -15 -5 -8 -24 -50 -44 -92
-64 -135 -104 -122 -92 29 6 79 5 83 -14 83 -15 0 -22 -9 -27 -30 -5 -26 -28
-50 -47 -50 -3 0 -6 15 -6 34 0 48 -33 86 -75 86 -18 0 -39 -7 -46 -16 -7 -9
-23 -20 -36 -25 -29 -11 -58 -59 -78 -126 -9 -29 -26 -65 -39 -80 -20 -23 -26
-25 -40 -14 -26 22 -36 79 -36 214 0 163 -17 199 -68 144 -21 -22 -34 -49 -92
-189 -18 -43 -35 -78 -40 -78 -14 0 -21 51 -30 198 -9 150 -16 172 -56 172
-43 0 -98 -109 -169 -335 -33 -104 -39 -116 -45 -90 -3 17 -2 91 3 165 4 74 6
150 2 168 -7 40 -45 63 -70 42 -23 -19 -18 -38 15 -55 37 -19 37 -26 9 -206
-22 -141 -21 -209 6 -245 26 -35 46 -6 76 110 53 199 128 394 157 404 9 3 12
-14 12 -60 1 -103 18 -255 34 -293 12 -27 21 -35 41 -35 29 0 31 4 95 172 22
58 48 112 57 120 14 12 15 8 9 -42 -10 -83 8 -254 31 -293 32 -55 95 -43 123
22 l12 31 22 -33 c41 -60 106 -61 162 -1 18 18 38 51 45 71 11 35 24 52 40 53
3 0 9 -27 12 -61 13 -141 90 -131 161 22 l33 71 7 -52 c9 -67 31 -110 55 -110
33 0 51 12 68 44 l16 31 14 -47 c24 -85 85 -84 133 2 l24 45 8 -44 c15 -89 47
-81 78 21 27 88 59 153 70 142 4 -5 15 -43 24 -85 26 -121 71 -147 124 -72 23
33 54 123 43 123 -5 0 -16 -20 -25 -44 -19 -50 -52 -84 -66 -70 -5 5 -20 50
-33 99 -18 73 -26 91 -43 93 -28 4 -60 -34 -94 -114 -20 -48 -31 -64 -35 -52
-4 9 -1 85 6 170 17 213 17 222 -3 226 -9 2 -19 -5 -21 -15z m-26 -223 c-3
-95 -28 -174 -65 -209 -21 -20 -25 -21 -39 -7 -21 22 -30 103 -22 196 8 95 23
111 100 107 l30 -2 -4 -85z m-602 -4 c7 -8 15 -30 18 -50 5 -30 3 -36 -12 -36
-43 0 -71 60 -43 88 16 16 23 15 37 -2z m-24 -106 c19 -6 35 -16 35 -22 0 -26
-35 -80 -61 -93 -37 -20 -45 -19 -69 5 -25 25 -27 107 -4 152 l16 31 24 -31
c13 -17 40 -36 59 -42z"/>
<path d="M1434 645 c-6 -15 -3 -34 11 -66 5 -13 -2 -20 -29 -29 -49 -16 -91
-4 -120 33 -27 34 -38 34 -25 0 19 -51 101 -75 164 -48 22 10 59 17 81 16 28
-2 59 6 93 23 58 30 93 33 115 10 19 -19 20 -35 3 -58 -19 -26 -51 -17 -55 17
-2 15 -8 25 -13 22 -16 -10 -10 -41 11 -60 28 -25 70 -11 83 29 7 22 5 33 -10
55 -27 36 -69 38 -132 7 -28 -14 -66 -26 -85 -26 -34 0 -35 1 -26 26 13 32 13
30 -6 48 -20 20 -53 21 -60 1z m49 -18 c7 -19 -8 -41 -22 -33 -16 10 -14 46 3
46 8 0 16 -6 19 -13z"/>
<path d="M130 520 l0 -31 25 18 c32 23 32 43 0 43 -21 0 -25 -5 -25 -30z"/>
<path d="M187 529 c-10 -35 -8 -44 4 -32 6 6 18 9 25 6 8 -3 14 -1 14 5 0 6 3
17 6 26 3 9 1 16 -5 16 -6 0 -11 -8 -11 -17 0 -15 -1 -15 -13 2 -13 17 -14 17
-20 -6z"/>
<path d="M250 535 c-16 -20 -9 -37 18 -42 17 -2 22 2 22 19 0 17 -3 19 -12 10
-7 -7 -17 -12 -23 -12 -5 1 1 10 14 20 16 14 19 20 8 20 -8 0 -20 -7 -27 -15z"/>
</g>
</svg>
