<?xml version="1.0" standalone="no"?>
<!DOCTYPE svg PUBLIC "-//W3C//DTD SVG 20010904//EN"
 "http://www.w3.org/TR/2001/REC-SVG-20010904/DTD/svg10.dtd">
<svg version="1.0" xmlns="http://www.w3.org/2000/svg"
 width="284.000000pt" height="177.000000pt" viewBox="0 0 284.000000 177.000000"
 preserveAspectRatio="xMidYMid meet">

<g transform="translate(0.000000,177.000000) scale(0.100000,-0.100000)"
fill="#000000" stroke="none">
<path d="M1218 1747 c-19 -13 -56 -47 -82 -74 -32 -35 -65 -58 -104 -74 -34
-13 -77 -41 -107 -70 -65 -62 -96 -74 -137 -53 -40 21 -64 10 -114 -53 -93
-118 -168 -183 -291 -253 -47 -27 -107 -108 -118 -162 -5 -20 -20 -37 -48 -55
-59 -36 -115 -92 -139 -136 -10 -22 -18 -41 -16 -43 4 -3 147 48 220 80 48 20
51 20 38 -3 -16 -31 -12 -33 31 -10 l42 21 -20 -29 c-54 -76 -51 -78 54 -22
54 29 104 57 111 62 8 6 12 6 12 -1 0 -6 -5 -14 -10 -17 -16 -10 -12 -25 5
-19 13 5 14 2 5 -20 -11 -29 -4 -32 24 -11 23 17 40 20 31 5 -15 -24 60 5 98
38 21 19 22 10 1 -30 -17 -33 -8 -32 35 6 24 21 24 20 5 -29 -6 -14 4 -9 36
18 66 56 73 51 40 -33 l-20 -52 29 21 c16 12 32 21 35 21 3 0 37 20 76 45 38
25 70 40 70 35 0 -6 -9 -29 -21 -51 -11 -23 -18 -43 -16 -45 2 -3 21 14 41 36
39 43 44 39 22 -15 l-15 -35 71 36 71 36 -7 -41 c-3 -23 -3 -41 1 -41 14 0 99
45 137 72 50 36 56 35 56 -4 l0 -32 34 34 c38 39 96 76 96 62 0 -5 -7 -26 -16
-47 -8 -20 -13 -40 -9 -43 7 -8 115 99 162 160 20 26 38 46 40 44 4 -3 -16
-60 -42 -121 -17 -39 -17 -40 1 -24 11 9 36 26 57 38 l38 23 -21 -53 c-25 -68
-25 -68 8 -37 30 28 87 68 96 68 3 0 6 -13 6 -30 l0 -30 55 27 c30 15 57 24
60 22 3 -3 -1 -25 -9 -47 -21 -58 0 -56 48 5 l36 46 0 -46 c0 -61 22 -63 51
-4 19 37 23 40 30 22 4 -11 8 -30 8 -43 1 -33 30 -25 58 17 l22 33 18 -36 c17
-37 46 -48 57 -21 4 12 10 14 25 5 26 -13 64 -13 79 2 9 9 13 7 18 -5 3 -9 16
-17 29 -17 35 0 22 29 -46 106 -32 37 -59 71 -59 75 0 5 44 -22 98 -60 72 -52
98 -66 102 -55 4 12 11 9 30 -11 25 -26 25 -26 30 -5 5 20 7 20 47 -14 22 -20
52 -36 65 -36 18 0 20 2 8 10 -9 6 -10 10 -3 10 6 0 15 -5 18 -10 9 -15 65
-12 65 3 0 7 -31 51 -70 98 -38 46 -92 116 -119 155 -28 40 -72 87 -100 107
-35 26 -65 61 -102 122 -62 102 -77 113 -119 88 -17 -9 -30 -21 -30 -25 0 -34
-122 35 -148 84 -9 17 -27 42 -39 54 -11 13 -41 53 -64 89 -24 36 -47 65 -52
65 -23 0 -71 -47 -89 -86 -10 -24 -32 -53 -49 -65 l-30 -21 -43 46 c-56 62
-99 70 -157 31 -23 -15 -44 -23 -48 -18 -3 4 -30 43 -58 86 -29 43 -64 88 -78
99 -14 11 -32 33 -40 49 -19 35 -41 37 -87 6z m93 -53 c19 -30 41 -63 49 -72
8 -10 12 -13 8 -8 -5 6 -8 17 -8 26 0 8 11 -4 24 -27 14 -23 36 -57 50 -76 30
-39 32 -47 11 -47 -8 0 -15 -7 -15 -15 0 -18 -16 -20 -24 -2 -3 6 -3 1 0 -11
14 -56 -37 -128 -151 -212 -20 -15 -20 -14 -1 8 19 22 19 22 0 22 -10 -1 -36
-7 -57 -14 -31 -12 -36 -12 -27 -1 6 8 25 17 41 20 16 4 32 11 35 17 4 5 23
17 43 26 l36 16 -35 7 -35 6 30 3 c17 1 41 2 55 1 23 0 23 1 -7 14 -18 8 -37
24 -43 35 -9 17 -6 21 22 29 l33 9 -30 3 c-51 4 -84 -2 -128 -21 -46 -21 -82
-26 -72 -10 3 6 15 10 25 10 10 0 32 12 47 26 l28 25 -30 -5 c-22 -4 -14 3 29
25 39 20 68 29 85 26 25 -5 25 -4 6 9 -19 14 -33 13 -90 -3 -15 -4 -17 -2 -9
7 6 6 31 14 55 17 34 5 39 8 24 14 -11 4 -42 8 -70 9 -45 1 -47 3 -23 11 15 6
30 19 33 30 5 15 12 18 33 13 15 -4 36 -14 46 -23 19 -16 19 -15 2 11 -10 15
-19 43 -21 63 -2 20 -5 39 -8 42 -9 8 -53 -26 -87 -68 -22 -28 -56 -53 -104
-75 -49 -23 -61 -32 -38 -28 44 8 41 -2 -5 -16 -21 -7 -49 -22 -63 -35 -32
-28 -100 -67 -100 -57 0 4 24 31 53 59 35 34 76 61 127 83 89 38 101 47 93 66
-3 8 0 14 7 14 6 0 8 -5 4 -12 -4 -7 -3 -8 4 -4 6 4 9 13 6 20 -5 14 44 56 65
56 6 0 11 5 11 10 0 27 31 4 61 -46z m668 -234 c12 -28 24 -50 26 -50 2 0 1 7
-2 17 -12 31 17 3 37 -37 11 -21 30 -46 42 -54 15 -11 18 -16 8 -16 -8 -1 1
-9 20 -20 19 -11 29 -19 22 -20 -8 0 -28 -15 -45 -32 -19 -21 -28 -26 -24 -14
6 15 5 17 -6 7 -11 -8 -21 -8 -42 3 l-28 14 29 4 c27 4 26 5 -11 12 -63 12
-138 40 -142 53 -3 9 3 8 24 -2 39 -21 52 -19 46 6 -6 20 -5 21 25 5 45 -23
52 -19 14 10 -17 14 -37 35 -43 46 -10 18 -9 19 13 8 13 -7 0 12 -32 46 -30
32 -48 52 -39 46 14 -11 17 -9 21 12 3 15 1 24 -6 23 -6 -1 -10 7 -8 18 2 18
1 18 -15 -3 -10 -13 -30 -38 -46 -55 l-27 -32 26 50 c15 28 38 60 52 72 l26
22 32 -45 c17 -24 41 -67 53 -94z m-311 25 c35 -35 43 -48 33 -54 -9 -6 -3
-11 21 -15 31 -7 99 -78 208 -219 l24 -32 -39 35 c-22 19 -34 28 -27 20 19
-22 14 -32 -9 -19 -42 22 -8 -11 47 -46 30 -19 76 -54 102 -78 42 -38 45 -39
29 -12 -12 19 -3 13 25 -19 89 -101 169 -180 152 -151 -14 24 -8 20 34 -19 28
-28 50 -52 47 -54 -2 -2 -24 -1 -49 2 -38 6 -54 17 -108 72 -35 36 -80 74
-100 85 -21 10 -45 33 -53 49 -22 42 -28 37 -10 -7 14 -34 27 -50 61 -71 15
-10 54 -68 54 -81 0 -6 -12 2 -27 18 -28 29 -28 29 -109 21 -45 -4 -96 -11
-115 -15 -51 -11 -24 10 36 28 l50 16 -40 0 c-22 1 -71 4 -108 8 -95 9 -64 22
53 24 l95 1 -85 14 c-58 10 -96 23 -122 41 -46 31 -43 41 4 18 l33 -16 -33 29
c-36 32 -33 41 12 43 28 1 27 2 -11 11 -33 7 -64 4 -139 -12 -107 -23 -111
-25 -206 -87 -53 -36 -72 -56 -98 -105 -32 -60 -49 -74 -30 -24 5 15 10 36 10
46 0 17 -4 18 -27 9 -14 -5 -49 -26 -77 -45 l-51 -36 40 37 c22 21 81 57 130
81 50 24 115 59 146 79 74 48 291 101 347 85 57 -15 49 -4 -15 20 -70 26 -188
37 -234 21 l-34 -11 28 25 c38 34 102 50 147 36 l35 -10 -35 30 c-31 26 -40
29 -80 24 -35 -4 -42 -3 -32 7 7 7 36 15 65 18 l52 6 -45 10 c-38 8 -45 14
-48 36 -2 18 4 31 19 42 20 13 20 16 6 22 -21 8 -22 47 -2 64 12 10 18 10 33
-1 9 -7 6 -1 -7 14 -28 31 -61 35 -83 10 -27 -33 -59 -96 -54 -108 3 -8 -2
-11 -13 -8 -13 3 -33 -12 -66 -51 -26 -31 -51 -54 -55 -51 -4 2 -26 -20 -48
-50 -43 -58 -39 -68 16 -35 17 11 32 16 32 11 0 -13 -47 -45 -93 -64 -20 -9
-36 -20 -35 -26 4 -12 -140 -121 -159 -121 -8 0 -33 -13 -56 -28 -72 -49 -74
-48 -18 14 30 32 72 69 93 81 48 27 100 69 76 60 -10 -4 -18 -5 -18 -3 0 1 28
25 63 53 73 60 287 266 287 277 0 9 -19 -1 -48 -28 -20 -18 -22 -18 -16 -2 4
10 32 38 63 62 74 58 98 58 159 -1z m-873 -43 c6 -8 17 -21 25 -28 73 -64 121
-114 100 -104 -35 15 48 -60 123 -111 61 -43 70 -54 35 -44 -19 5 -18 3 5 -10
15 -9 27 -17 27 -19 0 -2 -20 -24 -45 -48 -44 -44 -56 -47 -35 -8 8 16 5 19
-21 25 -23 5 -28 9 -18 16 9 6 -10 9 -51 10 -64 1 -65 1 -30 13 l35 13 -24 13
c-32 16 -184 7 -215 -13 -12 -8 -33 -31 -46 -51 -32 -46 -48 -47 -21 0 12 19
21 38 21 40 0 3 -21 -6 -47 -20 -25 -15 -48 -24 -50 -22 -9 9 74 56 167 95 77
32 104 39 140 35 l45 -5 -45 20 c-50 22 -104 26 -147 11 l-28 -10 30 26 c27
23 36 25 95 21 l65 -5 -35 19 c-19 10 -45 18 -57 19 -27 0 -31 17 -5 23 14 4
14 6 -5 12 -13 4 -23 14 -23 22 0 10 6 13 16 9 14 -5 15 -4 4 9 -7 8 -10 21
-7 30 7 17 -6 27 -26 19 -17 -6 -113 -124 -101 -124 14 0 -32 -43 -88 -82 -32
-23 -56 -44 -53 -47 2 -4 -13 -13 -33 -20 -20 -7 -50 -25 -65 -40 -27 -24 -87
-119 -87 -136 0 -4 20 11 45 34 63 58 79 51 20 -9 -48 -48 -149 -109 -161 -97
-4 3 11 13 32 22 25 10 34 19 27 23 -18 11 78 157 119 182 18 10 44 29 58 40
14 11 45 35 70 53 25 18 82 77 129 130 69 81 87 96 105 91 11 -3 26 -13 31
-22z m1512 -149 c20 -32 36 -64 36 -73 0 -8 10 -30 24 -47 30 -41 15 -43 -25
-4 -29 29 -29 29 -24 5 3 -18 0 -24 -14 -24 -27 0 -5 -15 43 -28 23 -7 65 -28
93 -47 29 -19 54 -35 57 -35 2 0 -6 15 -18 33 l-23 32 24 -20 c12 -11 35 -46
51 -78 18 -39 28 -52 31 -40 2 13 10 4 27 -30 13 -26 38 -59 57 -74 19 -14 33
-27 31 -29 -9 -9 -75 32 -106 65 -18 20 -28 28 -21 19 17 -25 5 -22 -33 6 -18
13 -43 29 -57 36 l-25 13 20 -24 c46 -53 51 -65 15 -36 -55 43 -133 87 -156
87 -11 0 -29 10 -40 21 -19 22 -19 22 3 10 12 -6 39 -11 60 -10 l38 1 -50 17
c-75 25 -183 81 -190 99 -5 14 -3 14 13 -1 10 -9 26 -17 34 -17 18 0 32 40 15
41 -7 0 -5 3 3 6 8 3 29 17 45 31 17 14 22 23 12 19 -13 -5 -16 -3 -10 6 4 6
13 27 19 45 10 28 10 31 -2 21 -12 -10 -13 -8 -5 15 14 36 2 33 -50 -12 -54
-48 -147 -112 -162 -112 -6 0 10 14 35 30 26 17 74 55 108 85 33 30 65 55 71
55 5 0 26 -26 46 -57z m-717 -251 c-14 -9 -49 -39 -79 -67 -46 -42 -51 -45
-32 -17 26 37 23 49 -8 32 -12 -6 -21 -7 -21 -2 0 11 50 36 110 56 58 19 60
18 30 -2z m841 -129 c21 -16 39 -32 39 -36 0 -10 -24 3 -69 37 -47 35 -20 33
30 -1z"/>
<path d="M2004 1354 c13 -27 43 -51 52 -42 1 2 -14 19 -33 38 l-35 35 16 -31z"/>
<path d="M951 1227 c2 -1 13 -9 24 -17 19 -14 19 -14 6 3 -7 9 -18 17 -24 17
-6 0 -8 -1 -6 -3z"/>
<path d="M110 703 c-102 -36 -110 -58 -110 -289 0 -197 8 -231 62 -264 40 -24
116 -27 159 -4 49 25 69 81 69 202 l0 102 -75 0 -75 0 0 -45 c0 -41 2 -45 25
-45 24 0 25 -3 25 -58 0 -60 -11 -82 -41 -82 -44 0 -49 22 -49 199 0 175 4
191 45 191 33 0 45 -20 45 -71 0 -54 16 -66 70 -54 27 6 30 10 30 48 0 68 -18
114 -53 141 -32 23 -99 39 -127 29z"/>
<path d="M426 700 c-41 -13 -74 -48 -86 -89 -5 -20 -10 -113 -10 -206 0 -146
3 -175 18 -205 27 -50 74 -72 145 -67 49 3 63 8 90 35 l32 32 3 211 3 210 -39
40 c-24 23 -49 39 -63 39 -13 0 -33 2 -44 5 -11 2 -33 0 -49 -5z m82 -102 c17
-17 17 -349 0 -366 -17 -17 -44 -15 -62 4 -13 13 -16 43 -16 175 0 92 4 169
10 180 12 21 50 25 68 7z"/>
<path d="M936 700 c-37 -12 -66 -38 -82 -77 -20 -47 -20 -370 0 -418 23 -54
68 -77 144 -73 55 4 67 8 95 36 l32 32 0 215 0 214 -28 29 c-17 17 -48 35 -72
41 -49 12 -50 12 -89 1z m82 -102 c17 -17 17 -349 0 -366 -17 -17 -44 -15 -62
4 -13 13 -16 44 -16 183 0 175 4 191 45 191 12 0 26 -5 33 -12z"/>
<path d="M1177 693 c-3 -10 -4 -139 -3 -288 l1 -270 53 -3 52 -3 0 110 0 111
60 0 60 0 0 45 0 45 -60 0 -60 0 0 85 0 85 76 0 75 0 -3 46 -3 46 -122 4
c-110 4 -122 3 -126 -13z"/>
<path d="M1480 421 l0 -291 50 0 50 0 0 110 0 110 60 0 c55 0 60 2 66 24 12
50 -2 65 -64 68 l-57 3 -3 82 -3 82 78 3 78 3 -3 40 c-2 22 -5 41 -6 43 -2 1
-58 5 -125 9 l-121 5 0 -291z"/>
<path d="M2123 702 l-43 -3 0 -285 0 -284 50 0 50 0 0 284 c0 157 -3 286 -7
288 -5 2 -27 2 -50 0z"/>
<path d="M2235 702 c-3 -3 -5 -133 -5 -289 l0 -283 45 0 45 0 1 168 c1 188 -6
192 66 -38 l40 -125 51 -3 52 -3 0 284 0 285 -26 6 c-14 4 -34 4 -45 1 -17 -6
-19 -17 -19 -138 0 -76 -4 -127 -9 -122 -5 6 -23 62 -41 125 -18 63 -36 119
-40 123 -8 10 -107 17 -115 9z"/>
<path d="M2577 683 c-3 -16 -4 -145 -3 -288 l1 -260 133 -3 132 -3 0 46 0 45
-80 0 -79 0 -6 33 c-4 18 -5 49 -3 68 l3 34 68 3 67 3 0 44 0 45 -47 1 c-27 1
-55 2 -63 3 -18 1 -36 91 -26 130 6 24 10 25 84 28 l77 3 3 39 c2 24 -2 42
-10 47 -7 5 -66 9 -130 9 l-116 0 -5 -27z"/>
<path d="M1780 415 l0 -285 130 0 130 0 0 45 0 45 -80 0 -80 0 0 240 0 240
-50 0 -50 0 0 -285z"/>
<path d="M1550 71 c0 -6 4 -13 10 -16 6 -3 7 1 4 9 -7 18 -14 21 -14 7z"/>
<path d="M1738 57 c-3 -19 -2 -25 4 -19 6 6 8 18 6 28 -3 14 -5 12 -10 -9z"/>
<path d="M1772 55 c0 -16 2 -22 5 -12 2 9 2 23 0 30 -3 6 -5 -1 -5 -18z"/>
<path d="M946 62 c-2 -4 -1 -14 4 -22 7 -11 9 -9 7 8 -1 24 -3 26 -11 14z"/>
<path d="M971 54 c0 -11 3 -14 6 -6 3 7 2 16 -1 19 -3 4 -6 -2 -5 -13z"/>
<path d="M1225 59 c-6 -8 -4 -10 5 -4 10 6 12 4 6 -11 -6 -15 -5 -17 5 -6 9 9
10 15 2 23 -8 8 -13 7 -18 -2z"/>
<path d="M1390 61 c13 -10 13 -12 0 -22 -13 -9 -13 -10 0 -6 8 2 15 10 15 17
0 7 -7 15 -15 17 -13 4 -13 3 0 -6z"/>
<path d="M1438 63 c7 -3 16 -2 19 1 4 3 -2 6 -13 5 -11 0 -14 -3 -6 -6z"/>
<path d="M1587 51 c-4 -17 -3 -21 5 -13 5 5 8 16 6 23 -3 8 -7 3 -11 -10z"/>
<path d="M1680 60 c-12 -7 -10 -9 7 -7 12 0 19 5 17 9 -6 10 -6 10 -24 -2z"/>
<path d="M1108 53 c7 -3 16 -2 19 1 4 3 -2 6 -13 5 -11 0 -14 -3 -6 -6z"/>
<path d="M1807 53 c-10 -9 -9 -23 1 -23 5 0 9 7 9 15 0 17 -1 18 -10 8z"/>
</g>
</svg>
