<?xml version="1.0" standalone="no"?>
<!DOCTYPE svg PUBLIC "-//W3C//DTD SVG 20010904//EN"
 "http://www.w3.org/TR/2001/REC-SVG-20010904/DTD/svg10.dtd">
<svg version="1.0" xmlns="http://www.w3.org/2000/svg"
 width="355.000000pt" height="142.000000pt" viewBox="0 0 355.000000 142.000000"
 preserveAspectRatio="xMidYMid meet">
<metadata>
Created by potrace 1.16, written by Peter Selinger 2001-2019
</metadata>
<g transform="translate(0.000000,142.000000) scale(0.100000,-0.100000)"
fill="#000000" stroke="none">
<path d="M2656 1001 c-4 -5 0 -12 6 -15 7 -3 3 -3 -9 0 -25 6 -95 -15 -87 -27
2 -4 -5 -5 -16 -2 -11 3 -20 1 -20 -4 0 -5 -6 -10 -14 -10 -26 0 -73 -24 -73
-37 0 -7 8 -18 18 -24 18 -12 21 1 6 26 -7 9 28 12 162 12 102 0 172 4 176 10
3 6 2 10 -3 10 -6 0 -33 16 -62 35 -53 36 -74 42 -84 26z"/>
<path d="M2100 695 c-6 -8 -10 -22 -8 -31 3 -14 8 -13 36 10 17 15 32 23 32
18 0 -5 -15 -20 -34 -33 -31 -21 -35 -30 -45 -97 -6 -40 -18 -86 -26 -102 -8
-16 -15 -31 -15 -33 0 -2 46 7 102 20 121 28 108 36 165 -102 l38 -93 120 -8
c66 -4 141 -7 166 -5 31 1 50 -3 59 -14 10 -12 10 -15 -1 -15 -10 0 -10 -3 -1
-12 9 -9 8 -16 -5 -30 -9 -10 -11 -18 -6 -18 6 0 14 7 17 16 3 9 13 14 21 11
8 -4 12 -1 9 6 -6 16 50 14 71 -3 9 -8 15 -8 15 -2 0 7 12 4 30 -6 16 -9 30
-22 30 -28 0 -14 -80 -48 -108 -46 -22 2 -23 -1 -17 -31 6 -26 5 -30 -6 -19
-18 16 -29 15 -29 -4 0 -8 5 -12 10 -9 6 3 10 1 10 -4 0 -18 -28 -12 -33 7 -4
16 -5 16 -6 -1 0 -10 -5 -15 -11 -12 -6 3 -7 -1 -4 -9 7 -19 70 -22 77 -3 4 9
6 9 6 0 1 -10 27 -13 95 -13 l94 0 4 35 c2 22 -1 40 -9 47 -35 28 -3 91 46 91
38 0 60 -19 66 -59 3 -16 8 -48 11 -71 l7 -43 77 0 c72 0 78 2 73 19 -3 10 0
28 6 40 24 43 111 13 111 -39 0 -19 7 -20 90 -20 l90 0 -6 24 c-4 18 0 30 15
43 12 9 21 22 21 28 0 11 -41 40 -52 37 -4 -1 -4 6 -1 16 6 15 5 15 -11 3 -12
-10 -14 -17 -6 -25 16 -16 12 -44 -7 -54 -27 -13 -80 5 -99 33 -19 29 -13 52
18 64 l22 8 -22 5 c-30 8 -49 52 -32 73 18 22 63 18 87 -7 28 -31 39 -78 18
-78 -8 0 -15 -4 -15 -10 0 -5 6 -10 14 -10 16 0 29 27 20 41 -12 19 16 38 42
29 l24 -10 0 194 0 194 -35 0 c-27 0 -35 -4 -35 -18 0 -11 -5 -22 -10 -25 -7
-4 -9 2 -5 18 4 15 2 28 -6 32 -9 6 -11 2 -6 -14 6 -23 -24 -47 -48 -37 -8 3
-16 0 -19 -7 -3 -8 -5 -6 -5 3 -1 17 -61 55 -61 39 0 -6 -4 -8 -9 -5 -5 4 -12
0 -14 -6 -4 -9 -6 -8 -6 3 -1 14 -11 14 -93 3 -79 -10 -97 -9 -123 4 -20 10
-30 11 -33 3 -2 -6 -8 -8 -14 -5 -10 6 -365 6 -391 0 -7 -1 -9 -1 -4 1 13 8 7
31 -9 37 -10 4 -22 -1 -29 -11 -12 -16 -31 -18 -147 -18 l-133 0 2 25 3 25
-12 -23 c-11 -23 -12 -22 -32 20 -19 39 -26 44 -71 55 -69 16 -91 15 -105 -2z
m1046 -243 c17 -11 26 -49 14 -57 -6 -4 -8 -16 -4 -28 6 -21 6 -21 -8 -3 -10
13 -17 15 -22 8 -4 -7 -21 -12 -37 -12 -17 0 -28 4 -24 9 12 21 -34 22 -54 2
-41 -41 -110 -17 -97 32 6 24 12 27 45 27 24 0 46 -7 56 -17 16 -15 17 -15 14
3 -2 10 0 25 4 32 9 13 94 17 113 4z m142 -168 c25 -17 30 -66 9 -86 -8 -6
-12 -21 -10 -32 4 -25 -16 -58 -24 -38 -2 6 -15 12 -28 12 -13 0 -27 5 -30 10
-3 6 -11 10 -17 10 -6 0 -1 -9 12 -20 13 -11 19 -20 13 -20 -11 0 -41 30 -42
43 -1 4 -2 26 -2 50 -1 23 -3 34 -6 24 -9 -34 -91 -59 -137 -41 -23 9 -19 50
6 68 24 17 94 21 117 7 9 -6 20 -2 32 10 23 23 76 25 107 3z"/>
<path d="M1973 509 c-7 -7 -47 -18 -89 -25 -43 -8 -83 -19 -90 -26 -7 -7 -35
-64 -62 -125 -41 -92 -47 -113 -34 -113 48 0 229 25 240 33 19 15 15 24 -28
71 -22 24 -40 48 -40 53 0 5 36 17 80 27 44 9 80 18 80 20 0 6 -41 96 -43 96
-2 0 -8 -5 -14 -11z"/>
<path d="M975 274 c-38 -55 -74 -104 -82 -110 -7 -7 -49 -17 -92 -24 l-79 -12
-26 -58 c-14 -32 -26 -60 -26 -64 0 -3 33 -6 73 -6 60 0 88 6 158 34 87 35
251 85 352 107 31 7 57 15 57 18 0 4 -14 15 -30 25 -21 12 -40 39 -62 87 -33
74 -40 79 -139 95 l-37 6 -67 -98z"/>
<path d="M1761 144 c-60 -16 -81 -29 -81 -50 0 -21 45 -29 160 -28 122 0 210
17 242 45 20 18 21 20 3 13 -37 -14 -106 -16 -151 -5 -36 9 -53 9 -90 -4 -74
-25 -86 -16 -31 23 36 25 25 27 -52 6z"/>
</g>
</svg>
